#!OML:ASF E:\Mandelcareful walks\Project 1\Capture day 1\Session 1\Subject1.ASF
:FULLY-SPECIFIED
:DEGREES
920
root -3.78054 14.94 0.269249 28.5374 66.278 17.6923
lowerback 37.3785 0.804188 -6.14263
upperback 5.09522 -1.03377 -1.05649
thorax -12.7255 -0.000921973 2.4758
lowerneck -28.3082 5.78175 1.18297
upperneck 42.0249 12.3694 -4.4373
head 23.5827 4.19504 0.921671
rclavicle -2.19657e-014 -3.4191e-014
rhumerus -7.15173 11.7975 -84.3677
rradius 54.3709
rwrist -12.3864
rhand -19.8782 -25.5384
rfingers 7.12502
rthumb 6.45736 -55.42
lclavicle -2.19657e-014 -3.4191e-014
lhumerus -12.7702 -24.168 85.8863
lradius 55.4626
lwrist 23.4498
lhand -24.5513 -11.0438
lfingers 7.12502
lthumb 1.94489 18.9271
rfemur -52.6887 -0.463493 8.21878
rtibia 67.6723
rfoot -24.5261 0.463658
rtoes -0.919845
lfemur -39.7093 39.978 -15.5314
ltibia 58.9893
lfoot -16.7197 13.8114
ltoes -13.9517
921
root -3.79227 14.9364 0.260022 28.2365 66.1336 17.373
lowerback 37.3597 0.790641 -6.0699
upperback 5.08381 -1.03132 -1.10537
thorax -12.7353 -0.00376748 2.38401
lowerneck -28.0309 5.42387 1.16637
upperneck 42.6118 11.928 -4.35411
head 23.9789 4.04698 0.845484
rclavicle 5.78463e-014 1.51076e-014
rhumerus -7.29575 11.593 -84.5223
rradius 54.2584
rwrist -12.2867
rhand -19.8337 -25.9854
rfingers 7.12502
rthumb 6.50033 -55.8657
lclavicle 5.78463e-014 1.51076e-014
lhumerus -12.7353 -24.2766 85.8236
lradius 55.4766
lwrist 23.1525
lhand -24.9866 -11.1263
lfingers 7.12502
lthumb 1.52455 18.848
rfemur -52.7842 -0.347919 8.27438
rtibia 67.6615
rfoot -24.4906 0.578407
rtoes -0.651582
lfemur -39.7506 40.1002 -15.4788
ltibia 59.0624
lfoot -16.8573 13.8218
ltoes -13.6834
922
root -3.80089 14.9314 0.251637 28.1241 65.9471 17.2644
lowerback 37.3285 0.814819 -6.2932
upperback 5.04499 -1.07542 -0.98036
thorax -12.7558 -0.0142433 2.65624
lowerneck -27.6333 5.08217 0.816133
upperneck 43.0998 11.6588 -4.25002
head 24.2117 3.91342 0.883879
rclavicle 1.81888e-014 7.55382e-015
rhumerus -7.27373 11.7966 -84.5173
rradius 54.0459
rwrist -12.2937
rhand -19.8811 -26.2099
rfingers 7.12502
rthumb 6.45462 -56.0915
lclavicle 1.81888e-014 7.55382e-015
lhumerus -12.8144 -23.9512 86.0133
lradius 55.4469
lwrist 22.5641
lhand -25.4153 -11.4221
lfingers 7.12502
lthumb 1.11043 18.5548
rfemur -52.9097 -0.276162 8.23985
rtibia 67.6864
rfoot -24.5058 0.678488
rtoes -0.481309
lfemur -39.784 40.2552 -15.5315
ltibia 59.1498
lfoot -16.9821 13.8242
ltoes -13.7022
923
root -3.80925 14.9277 0.243402 28.0936 65.715 17.3444
lowerback 37.4489 0.88872 -6.80092
upperback 4.97787 -1.16181 -0.720975
thorax -12.8478 -0.0270352 3.2414
lowerneck -27.148 4.75208 0.276607
upperneck 43.4855 11.4759 -4.1474
head 24.2986 3.78196 0.975756
rclavicle -4.69132e-014 3.1408e-014
rhumerus -7.33574 12.3606 -84.3542
rradius 53.9873
rwrist -12.4468
rhand -19.8053 -26.2023
rfingers 7.12502
rthumb 6.52777 -56.0817
lclavicle -4.69132e-014 3.1408e-014
lhumerus -12.9053 -23.1133 86.3313
lradius 55.4393
lwrist 21.506
lhand -25.0843 -10.9834
lfingers 7.12502
lthumb 1.43016 18.9915
rfemur -52.95 -0.222867 8.10921
rtibia 67.7621
rfoot -24.5416 0.853327
rtoes -0.148777
lfemur -39.6933 40.4389 -15.6077
ltibia 59.2778
lfoot -17.0811 13.8372
ltoes -13.8547
924
root -3.83109 14.9196 0.235919 28.1093 65.7119 17.3232
lowerback 37.5628 0.843383 -7.36004
upperback 4.82056 -1.40364 -0.288887
thorax -13.02 -0.100787 4.11195
lowerneck -26.5688 4.5116 -0.246614
upperneck 43.9059 11.4906 -4.15053
head 24.4197 3.7071 1.0598
rclavicle 1.19271e-014 -1.04362e-014
rhumerus -7.4583 13.3836 -84.1329
rradius 53.8751
rwrist -12.6536
rhand -19.7944 -26.0632
rfingers 7.12502
rthumb 6.53832 -55.9423
lclavicle 1.19271e-014 -1.04362e-014
lhumerus -13.0658 -21.8334 86.761
lradius 55.397
lwrist 20.6818
lhand -24.7237 -10.2504
lfingers 7.12502
lthumb 1.77838 19.722
rfemur -53.1429 -0.337761 8.15483
rtibia 67.8724
rfoot -24.5251 1.01419
rtoes 0.360136
lfemur -39.9391 40.4797 -15.6786
ltibia 59.4404
lfoot -17.0223 13.8121
ltoes -13.5291
925
root -3.87755 14.8977 0.231299 28.8181 65.9526 17.6149
lowerback 37.4787 0.653344 -8.46072
upperback 4.47681 -1.98558 0.573075
thorax -13.2525 -0.290066 5.89422
lowerneck -25.8006 4.47024 -1.18391
upperneck 44.3513 12.0937 -4.22977
head 24.481 3.75312 1.33382
rclavicle 4.2043e-014 -5.91384e-014
rhumerus -7.54134 15.5807 -83.6316
rradius 53.7498
rwrist -12.9859
rhand -19.8152 -25.8407
rfingers 7.12502
rthumb 6.51826 -55.7203
lclavicle 4.2043e-014 -5.91384e-014
lhumerus -13.5309 -19.5867 87.581
lradius 55.3519
lwrist 20.7767
lhand -24.8752 -10.4646
lfingers 7.12502
lthumb 1.63212 19.5089
rfemur -53.8812 -0.698062 8.22654
rtibia 68.0823
rfoot -24.3999 1.04663
rtoes 0.774741
lfemur -41.0322 40.3015 -16.1677
ltibia 59.6599
lfoot -16.823 13.8097
ltoes -12.803
926
root -3.89272 14.8908 0.225962 28.7108 65.7168 17.4136
lowerback 37.2372 0.711145 -7.91176
upperback 4.62965 -1.73324 0.0885905
thorax -13.0541 -0.2206 4.95938
lowerneck -25.7589 3.77854 -1.13196
upperneck 44.8633 10.6455 -3.4631
head 24.7853 3.35016 1.36255
rclavicle 3.01159e-014 4.18442e-014
rhumerus -7.51394 14.2663 -84.0431
rradius 53.6888
rwrist -12.9014
rhand -19.8292 -25.4989
rfingers 7.12502
rthumb 6.50467 -55.379
lclavicle 3.01159e-014 4.18442e-014
lhumerus -13.0002 -21.2015 87.1092
lradius 55.2824
lwrist 22.5264
lhand -25.3972 -11.8576
lfingers 7.12502
lthumb 1.12799 18.1191
rfemur -54.1872 -0.593695 8.23404
rtibia 68.192
rfoot -24.3508 1.10938
rtoes 0.470652
lfemur -41.25 40.4884 -16.2668
ltibia 59.8195
lfoot -16.9393 13.8568
ltoes -12.3337
927
root -3.90762 14.8883 0.222054 28.392 65.5051 17.095
lowerback 37.0863 0.780147 -7.41381
upperback 4.84394 -1.47697 -0.326993
thorax -12.8084 -0.144511 4.12896
lowerneck -25.7595 3.14547 -1.02009
upperneck 45.2635 9.25858 -2.76967
head 25.0544 2.97575 1.3609
rclavicle -2.34566e-014 2.60408e-014
rhumerus -7.32925 13.0441 -84.3999
rradius 53.5927
rwrist -12.7465
rhand -19.6921 -25.0931
rfingers 7.12502
rthumb 6.6371 -54.9691
lclavicle -2.34566e-014 2.60408e-014
lhumerus -12.3045 -21.9527 86.4977
lradius 55.4226
lwrist 21.1211
lhand -23.9229 -9.63729
lfingers 7.12502
lthumb 2.55186 20.3272
rfemur -54.3618 -0.397098 8.30169
rtibia 68.2695
rfoot -24.3365 1.06877
rtoes 0.0547199
lfemur -41.2806 40.663 -16.1993
ltibia 59.9392
lfoot -16.9126 13.9119
ltoes -12.6906
928
root -3.91909 14.8825 0.218991 28.1941 65.359 16.9192
lowerback 36.94 0.803532 -6.94732
upperback 5.08062 -1.28658 -0.736473
thorax -12.5253 -0.0931624 3.35332
lowerneck -25.8603 2.49276 -0.800695
upperneck 45.6 7.7752 -2.12223
head 25.3518 2.58502 1.29106
rclavicle -3.34952e-014 2.5345e-014
rhumerus -7.09522 11.8351 -84.8129
rradius 53.4523
rwrist -12.4558
rhand -19.4544 -24.8029
rfingers 7.12502
rthumb 6.86657 -54.6715
lclavicle -3.34952e-014 2.5345e-014
lhumerus -11.6056 -22.8399 85.918
lradius 55.4482
lwrist 20.6964
lhand -23.5024 -9.04708
lfingers 7.12502
lthumb 2.95791 20.9122
rfemur -54.4544 -0.276505 8.3312
rtibia 68.3149
rfoot -24.3341 1.15906
rtoes 0.397958
lfemur -41.2846 40.7697 -16.1549
ltibia 60.0106
lfoot -16.846 13.9739
ltoes -13.2166
929
root -3.92763 14.879 0.214403 28.2924 65.2711 17.0847
lowerback 36.8824 0.802169 -6.55825
upperback 5.29335 -1.16099 -1.12216
thorax -12.2907 -0.0607198 2.67479
lowerneck -25.9716 1.7787 -0.57216
upperneck 45.8577 6.1774 -1.52364
head 25.6061 2.15951 1.15769
rclavicle 1.09332e-014 -1.70955e-014
rhumerus -6.90616 10.6538 -85.2247
rradius 53.3853
rwrist -12.1237
rhand -19.249 -24.9475
rfingers 7.12502
rthumb 7.06476 -54.8096
lclavicle 1.09332e-014 -1.70955e-014
lhumerus -10.8933 -24.0826 85.3501
lradius 55.4178
lwrist 21.7216
lhand -24.0968 -10.0194
lfingers 7.12502
lthumb 2.38392 19.947
rfemur -54.4375 -0.344924 8.24234
rtibia 68.2991
rfoot -24.3178 1.34158
rtoes 0.922569
lfemur -41.2447 40.7901 -16.2498
ltibia 60.0182
lfoot -16.8666 14.0557
ltoes -13.1906
930
root -3.94029 14.8775 0.208404 28.4516 65.1647 17.2516
lowerback 36.8896 0.858634 -6.2847
upperback 5.43925 -1.00525 -1.40266
thorax -12.1515 -0.00490195 2.16088
lowerneck -26.0324 1.09948 -0.526377
upperneck 45.9334 4.66619 -0.881432
head 25.6441 1.74143 1.10284
rclavicle 2.06736e-014 -1.48095e-014
rhumerus -6.72608 9.5524 -85.4782
rradius 53.3575
rwrist -11.8809
rhand -19.0379 -24.9266
rfingers 7.12502
rthumb 7.26862 -54.7818
lclavicle 2.06736e-014 -1.48095e-014
lhumerus -10.324 -25.7086 84.9083
lradius 55.4268
lwrist 23.7744
lhand -25.8063 -12.1924
lfingers 7.12502
lthumb 0.732867 17.7861
rfemur -54.5132 -0.400403 8.14813
rtibia 68.2754
rfoot -24.2454 1.423
rtoes 1.08982
lfemur -41.311 40.8228 -16.4117
ltibia 60.0201
lfoot -16.7834 14.1248
ltoes -13.0137
